<?xml version="1.0" encoding="UTF-8"?>
<svg version="1.1" xmlns="http://www.w3.org/2000/svg" width="247" height="230">
<path d="M0 0 C81.51 0 163.02 0 247 0 C247 75.9 247 151.8 247 230 C165.49 230 83.98 230 0 230 C0 154.1 0 78.2 0 0 Z " fill="#FEFEFE" transform="translate(0,0)"/>
<path d="M0 0 C2.01722359 1.26228679 3.87577475 2.6290748 5.75390625 4.08984375 C7.28667127 5.16514545 8.82860969 6.2274757 10.37890625 7.27734375 C11.41917969 8.01017578 11.41917969 8.01017578 12.48046875 8.7578125 C19.13719504 12.65805935 25.75124238 12.42062585 33.234375 12.39257812 C41.1287503 12.57825767 45.80270998 15.33986541 51.50390625 20.65234375 C53.69411627 23.48288095 54.62573779 26.44275366 55.69140625 29.83984375 C59.11952483 40.71571798 63.61019422 46.4816353 72.96484375 53.05078125 C77.16242071 56.11959802 80.08245876 59.07550128 81.75390625 64.08984375 C82.59893106 75.9689425 82.59893106 75.9689425 80.25390625 80.90234375 C78.46638655 84.88595908 78.41410071 88.85226498 78.37890625 93.15234375 C78.36537109 93.82563721 78.35183594 94.49893066 78.33789062 95.19262695 C78.38159361 100.15230897 79.78675247 103.60514082 81.75390625 108.08984375 C82.72549961 115.27153797 82.93438194 122.37004283 78.4453125 128.35546875 C75.81814418 131.04937806 72.92221882 133.28606762 69.89453125 135.51171875 C62.53416359 140.9379752 58.44377652 147.43477087 55.87890625 156.08984375 C53.68829352 163.07683839 50.30353753 167.80112627 44.13671875 171.77734375 C39.6814001 173.50596623 35.73764444 173.48585458 31.00390625 173.52734375 C19.68476157 173.88473668 12.51063114 176.11091386 3.76171875 183.50390625 C-1.09216566 187.33790833 -5.12763862 187.57949748 -11.21875 187.46875 C-15.85169516 186.88888461 -18.63312369 184.90562001 -22.24609375 182.08984375 C-23.75699211 181.01326286 -25.27816293 179.95097227 -26.80859375 178.90234375 C-27.49050781 178.41378906 -28.17242187 177.92523438 -28.875 177.421875 C-35.62195327 173.63157671 -42.62936714 173.75717525 -50.13085938 173.78710938 C-57.78589261 173.59588776 -62.41933434 170.65962503 -67.99609375 165.58984375 C-70.31526751 162.61024303 -71.11303445 159.44852661 -72.12109375 155.83984375 C-75.19077943 145.17480931 -80.45716277 139.00030652 -89.6953125 132.9765625 C-93.54182434 130.13143965 -96.548222 126.59739161 -98.24609375 122.08984375 C-98.86776268 116.51097059 -98.8768748 111.08095923 -96.74609375 105.83984375 C-94.16634341 99.12020834 -93.91797755 89.6848205 -95.92578125 82.73828125 C-96.46301777 81.53589476 -97.00705156 80.33651695 -97.55859375 79.140625 C-99.38458392 73.69377933 -99.28863896 67.14193262 -97.4375 61.72265625 C-94.73426476 56.9148261 -90.77710649 53.89533987 -86.38671875 50.66796875 C-79.02635109 45.2417123 -74.93596402 38.74491663 -72.37109375 30.08984375 C-70.18048102 23.10284911 -66.79572503 18.37856123 -60.62890625 14.40234375 C-56.1735876 12.67372127 -52.22983194 12.69383292 -47.49609375 12.65234375 C-36.17694907 12.29495082 -29.00281864 10.06877364 -20.25390625 2.67578125 C-14.51763739 -1.85520155 -6.86189937 -2.78056096 0 0 Z " fill="#010101" transform="translate(131.24609375,17.91015625)"/>
<path d="M0 0 C5.55004849 -0.12422629 11.09927582 -0.21463317 16.65039062 -0.2746582 C18.53595083 -0.29969777 20.42141498 -0.33373999 22.30664062 -0.37719727 C25.02758564 -0.43831786 27.74724027 -0.46631493 30.46875 -0.48828125 C31.30241089 -0.51408768 32.13607178 -0.5398941 32.99499512 -0.56648254 C39.17316685 -0.56939824 43.20086778 1.10893697 48 5 C51.67341992 9.04076191 52.69037026 12.35214706 52.46484375 17.68359375 C51.47590341 22.6116746 48.49618853 26.50381147 45 30 C45.42152344 30.47050781 45.84304687 30.94101563 46.27734375 31.42578125 C46.82519531 32.04839844 47.37304688 32.67101562 47.9375 33.3125 C48.48277344 33.92738281 49.02804688 34.54226562 49.58984375 35.17578125 C52.64683479 39.13039293 52.11638036 43.44188336 52.0625 48.1875 C52.05798828 48.93708984 52.05347656 49.68667969 52.04882812 50.45898438 C52.03706354 52.30602383 52.01912865 54.15302213 52 56 C49.525 56.495 49.525 56.495 47 57 C46.97421875 55.91460937 46.9484375 54.82921875 46.921875 53.7109375 C46.86556262 52.26558651 46.808216 50.82027556 46.75 49.375 C46.73582031 48.66214844 46.72164062 47.94929688 46.70703125 47.21484375 C46.47222675 42.09610556 45.34894811 39.07007197 42 35 C36.94220319 31.62813546 31.79171272 31.81770118 25.85546875 31.68359375 C25.08568192 31.66281265 24.31589508 31.64203156 23.52278137 31.62062073 C21.07777333 31.55553951 18.63266317 31.49643409 16.1875 31.4375 C14.52407823 31.39427532 12.86066656 31.35065979 11.19726562 31.30664062 C7.13161352 31.19990093 3.06585929 31.09851829 -1 31 C-0.67 29.35 -0.34 27.7 0 26 C1.8394519 25.96241577 1.8394519 25.96241577 3.71606445 25.92407227 C8.2615827 25.82996946 12.80694917 25.72975567 17.35229492 25.62768555 C19.32035779 25.58434759 21.28845798 25.54267168 23.2565918 25.50268555 C26.0839361 25.44495555 28.91109271 25.38126884 31.73828125 25.31640625 C32.61962234 25.29969376 33.50096344 25.28298126 34.40901184 25.26576233 C35.22963608 25.24581711 36.05026031 25.22587189 36.89575195 25.20532227 C37.61745071 25.18977798 38.33914948 25.1742337 39.0827179 25.15821838 C41.22108144 25.05804743 41.22108144 25.05804743 44 24 C46.00569505 20.30529859 46.43348926 17.16149693 46 13 C44.26995723 9.19390591 42.82996709 7.56746743 39 6 C36.98576875 5.67902172 36.98576875 5.67902172 34.87402344 5.68115234 C33.67323151 5.65134781 33.67323151 5.65134781 32.44818115 5.62094116 C31.59387512 5.60938995 30.73956909 5.59783875 29.859375 5.5859375 C28.97719299 5.56657135 28.09501099 5.5472052 27.18609619 5.5272522 C24.37416184 5.46757152 21.5621863 5.42111717 18.75 5.375 C16.84112819 5.33680962 14.93227341 5.29775727 13.0234375 5.2578125 C8.34909704 5.16187942 3.67467591 5.07780584 -1 5 C-0.67 3.35 -0.34 1.7 0 0 Z " fill="#EFEFEF" transform="translate(128,86)"/>
<path d="M0 0 C2.625 0.375 2.625 0.375 5 1 C5 1.99 5 2.98 5 4 C5.68449219 3.76410156 6.36898438 3.52820313 7.07421875 3.28515625 C11.04214718 2.89842891 13.50905764 4.48195051 16.8125 6.4375 C17.40998047 6.77587891 18.00746094 7.11425781 18.62304688 7.46289062 C20.08938822 8.29577251 21.54574756 9.14618561 23 10 C22.67 11.65 22.34 13.3 22 15 C19.69 14.67 17.38 14.34 15 14 C15.14501953 15.10794922 15.14501953 15.10794922 15.29296875 16.23828125 C15 19 15 19 12.98828125 21.16796875 C12.10527344 21.83441406 11.22226563 22.50085938 10.3125 23.1875 C9.44238281 23.86167969 8.57226562 24.53585938 7.67578125 25.23046875 C5.15632564 26.89661968 2.80196138 27.91644764 0 29 C-0.66 29.66 -1.32 30.32 -2 31 C-2.04939115 26.90661348 -2.08571501 22.81334202 -2.10986328 18.71972656 C-2.11992877 17.32679219 -2.13358234 15.93387898 -2.15087891 14.54101562 C-2.1751022 12.5404564 -2.18540814 10.53974385 -2.1953125 8.5390625 C-2.20578613 7.33459473 -2.21625977 6.13012695 -2.22705078 4.88916016 C-2 2 -2 2 0 0 Z " fill="#F8F8F8" transform="translate(2,99)"/>
<path d="M0 0 C0.87935211 0.00424484 1.75870422 0.00848969 2.66470337 0.01286316 C5.45647592 0.02957414 8.24751038 0.06721183 11.0390625 0.10546875 C12.93879161 0.12052541 14.83853211 0.13421209 16.73828125 0.14648438 C21.38049008 0.17945277 26.02215141 0.23118222 30.6640625 0.29296875 C31.1590625 2.76796875 31.1590625 2.76796875 31.6640625 5.29296875 C29.8857605 5.31484253 29.8857605 5.31484253 28.0715332 5.3371582 C23.66367773 5.39522813 19.25632846 5.47246059 14.84887695 5.55541992 C12.94303619 5.58862837 11.03709804 5.616673 9.13110352 5.6394043 C6.38776235 5.67302543 3.64531028 5.7253447 0.90234375 5.78125 C-0.37137337 5.79083488 -0.37137337 5.79083488 -1.67082214 5.8006134 C-6.35398834 5.91642208 -9.55266196 6.23414063 -13.3359375 9.29296875 C-15.80344989 12.99423734 -15.64314906 14.91520407 -15.3359375 19.29296875 C-14.14825895 22.67328464 -13.43768525 23.22513692 -10.3359375 25.29296875 C-8.62148861 25.73035571 -6.88925966 26.10145563 -5.1484375 26.41796875 C-4.24738281 26.58554688 -3.34632812 26.753125 -2.41796875 26.92578125 C-1.73089844 27.04695313 -1.04382813 27.168125 -0.3359375 27.29296875 C-0.3359375 28.61296875 -0.3359375 29.93296875 -0.3359375 31.29296875 C-10.90167953 32.15274884 -10.90167953 32.15274884 -15.3359375 29.16796875 C-19.62994533 25.48150639 -21.45466032 21.53271482 -21.8984375 15.91796875 C-21.73513513 11.31439726 -20.01314895 8.59224062 -17.234375 5.01953125 C-11.91287472 0.17981289 -6.82050935 -0.12513016 0 0 Z " fill="#F1F1F1" transform="translate(87.3359375,85.70703125)"/>
<path d="M0 0 C5.28717717 0.02750157 7.81977946 1.15299066 11.53515625 4.83203125 C15.19999997 9.22343291 15.29421437 12.17536302 15.19921875 17.70703125 C14.75241101 21.46990609 13.34615227 23.61332598 10.875 26.4375 C10.42125 27.015 9.9675 27.5925 9.5 28.1875 C4.56106662 31.98667952 -1.3328732 31.70701101 -7.2421875 31.6328125 C-8.09934357 31.6299826 -8.95649963 31.62715271 -9.83963013 31.62423706 C-12.55989932 31.61309999 -15.27983141 31.5880076 -18 31.5625 C-19.85155772 31.55246182 -21.70312064 31.54333744 -23.5546875 31.53515625 C-28.0782536 31.51318188 -32.60156977 31.478697 -37.125 31.4375 C-37.6875 29.5 -37.6875 29.5 -38.125 27.4375 C-36.0224233 25.3349233 -31.36348089 26.27590849 -28.453125 26.26171875 C-26.65623838 26.23851329 -24.85936335 26.21439566 -23.0625 26.18945312 C-20.22062518 26.15437128 -17.37917409 26.12501975 -14.53710938 26.11157227 C-11.80025373 26.09607613 -9.06464935 26.05584662 -6.328125 26.01171875 C-5.48211731 26.01362717 -4.63610962 26.01553558 -3.76446533 26.01750183 C0.29871065 25.93345329 2.37821168 25.75260228 5.88769531 23.52661133 C8.9439961 20.31374084 9.29190541 17.92979733 9.2109375 13.4765625 C8.97255752 11.13779343 8.97255752 11.13779343 6.875 8.5 C3.9283966 6.47421016 3.04885228 6.15664336 -0.3125 5.875 C-1.570625 5.730625 -2.82875 5.58625 -4.125 5.4375 C-5.625 3.375 -5.625 3.375 -6.125 1.4375 C-4.42114834 -0.26635166 -2.33165078 0.10482899 0 0 Z " fill="#EDEDED" transform="translate(104.125,112.5625)"/>
<path d="M0 0 C0 5.94 0 11.88 0 18 C-5 17 -5 17 -7.3125 14.3125 C-9.13755105 10.72999238 -9.68606818 8.94489206 -9 5 C-6.25381157 1.61303427 -4.41847882 0 0 0 Z " fill="#F7F7F7" transform="translate(247,81)"/>
<path d="M0 0 C0.763125 0.20625 1.52625 0.4125 2.3125 0.625 C2.05237695 4.16762816 1.5774453 5.38163005 -1.0859375 7.828125 C-2.06820313 8.50359375 -3.05046875 9.1790625 -4.0625 9.875 C-5.03960937 10.56078125 -6.01671875 11.2465625 -7.0234375 11.953125 C-9.6875 13.625 -9.6875 13.625 -12.6875 14.625 C-13.3475 15.285 -14.0075 15.945 -14.6875 16.625 C-14.6875 12.995 -14.6875 9.365 -14.6875 5.625 C-14.0275 6.285 -13.3675 6.945 -12.6875 7.625 C-11.98173828 7.01011719 -11.98173828 7.01011719 -11.26171875 6.3828125 C-10.32779297 5.57457031 -10.32779297 5.57457031 -9.375 4.75 C-8.76011719 4.21632813 -8.14523438 3.68265625 -7.51171875 3.1328125 C-3.18399485 -0.44427835 -3.18399485 -0.44427835 0 0 Z " fill="#F0F0F0" transform="translate(14.6875,113.375)"/>
<path d="M0 0 C0.66 0 1.32 0 2 0 C4.21436615 3.21255192 6.053529 6.61483304 8 10 C2.39 10 -3.22 10 -9 10 C-8 5 -8 5 -6 3 C-4.34183216 2.31246699 -2.67540664 1.64438717 -1 1 C-0.67 0.67 -0.34 0.34 0 0 Z " fill="#F1F1F1" transform="translate(54,220)"/>
<path d="M0 0 C0.99 0 1.98 0 3 0 C4.27441406 1.3293457 4.27441406 1.3293457 5.515625 3.17578125 C5.96164063 3.83900391 6.40765625 4.50222656 6.8671875 5.18554688 C7.32351562 5.88744141 7.77984375 6.58933594 8.25 7.3125 C8.72179688 8.00279297 9.19359375 8.69308594 9.6796875 9.40429688 C10.12054688 10.07138672 10.56140625 10.73847656 11.015625 11.42578125 C11.42071289 12.03848877 11.82580078 12.65119629 12.24316406 13.2824707 C13 15 13 15 12 18 C11.34 18 10.68 18 10 18 C8.76318359 16.53125 8.76318359 16.53125 7.3984375 14.5 C6.90859375 13.778125 6.41875 13.05625 5.9140625 12.3125 C5.40617187 11.549375 4.89828125 10.78625 4.375 10 C3.859375 9.236875 3.34375 8.47375 2.8125 7.6875 C1.53552182 5.79568048 0.26506032 3.89980102 -1 2 C-0.67 1.34 -0.34 0.68 0 0 Z " fill="#F1F1F1" transform="translate(16,89)"/>
<path d="M0 0 C4.97561428 1.37678994 6.62124621 3.83723972 9.3125 8.125 C10.00988281 9.22070312 10.70726562 10.31640625 11.42578125 11.4453125 C11.94527344 12.28835937 12.46476563 13.13140625 13 14 C12.67 14.66 12.34 15.32 12 16 C11.34 16 10.68 16 10 16 C8.6005541 14.06701535 7.27891407 12.07725985 6 10.0625 C3.6239883 5.86500495 3.6239883 5.86500495 0 3 C0 2.01 0 1.02 0 0 Z " fill="#F0F0F0" transform="translate(209,103)"/>
<path d="M0 0 C0.99 0 1.98 0 3 0 C4.859375 2.08203125 4.859375 2.08203125 6.75 4.8125 C7.38421875 5.70582031 8.0184375 6.59914062 8.671875 7.51953125 C9.11015625 8.33808594 9.5484375 9.15664062 10 10 C9.67 10.99 9.34 11.98 9 13 C5.05124418 11.68374806 4.45007287 9.94634602 2.3125 6.4375 C1.68988281 5.42558594 1.06726562 4.41367188 0.42578125 3.37109375 C-0.04472656 2.58863281 -0.51523437 1.80617187 -1 1 C-0.67 0.67 -0.34 0.34 0 0 Z " fill="#F1F1F1" transform="translate(58,217)"/>
<path d="M0 0 C1.32 0 2.64 0 4 0 C4 3.3 4 6.6 4 10 C2.68 10 1.36 10 0 10 C0 6.7 0 3.4 0 0 Z " fill="#FAFAFA" transform="translate(175,133)"/>
<path d="M0 0 C4.455 2.97 4.455 2.97 9 6 C8.67 6.66 8.34 7.32 8 8 C6.02 7.34 4.04 6.68 2 6 C1.67 6.66 1.34 7.32 1 8 C0.67 5.36 0.34 2.72 0 0 Z " fill="#EEEEEE" transform="translate(209,114)"/>
<path d="M0 0 C0.33 0 0.66 0 1 0 C1.66 3.96 2.32 7.92 3 12 C-2 10 -2 10 -3 7.6875 C-3 4.30627261 -1.99303385 2.68293019 0 0 Z " fill="#F1F1F1" transform="translate(32,87)"/>
<path d="M0 0 C1.875 0.25 1.875 0.25 4 1 C4.66 2.32 5.32 3.64 6 5 C3.03 5 0.06 5 -3 5 C-2.01 3.35 -1.02 1.7 0 0 Z " fill="#FEFEFE" transform="translate(51,225)"/>
<path d="M0 0 C1.65 0.33 3.3 0.66 5 1 C4.67 2.65 4.34 4.3 4 6 C2.35 5.67 0.7 5.34 -1 5 C-0.67 3.35 -0.34 1.7 0 0 Z " fill="#F0F0F0" transform="translate(2,99)"/>
<path d="M0 0 C0.99 0 1.98 0 3 0 C3 1.98 3 3.96 3 6 C0.69 6 -1.62 6 -4 6 C-1.125 1.125 -1.125 1.125 0 0 Z " fill="#F0F0F0" transform="translate(244,224)"/>
<path d="M0 0 C3.3 0 6.6 0 10 0 C5.375 4 5.375 4 2 4 C1.34 2.68 0.68 1.36 0 0 Z " fill="#F2F2F2" transform="translate(166,0)"/>
</svg>
